<svg width="20" height="20" viewBox="0 0 20 20" fill="none" xmlns="http://www.w3.org/2000/svg">
<path d="M14.1667 11.1806C14.1667 11.5066 14.1667 11.6695 14.2193 11.8104C14.2657 11.9349 14.3413 12.0465 14.4396 12.1359C14.5509 12.237 14.7022 12.2975 15.0048 12.4186L16.5048 13.0186C17.1174 13.2636 17.4237 13.3861 17.6696 13.335C17.8846 13.2904 18.0733 13.1626 18.1946 12.9796C18.3334 12.7703 18.3334 12.4404 18.3334 11.7806V8.60492C18.3334 7.83412 18.3334 7.44873 18.1717 7.2286C18.0308 7.03666 17.8145 6.91418 17.5774 6.89208C17.3054 6.86674 16.975 7.06502 16.314 7.46159L14.814 8.36159C14.578 8.50322 14.4599 8.57404 14.3742 8.67154C14.2983 8.75782 14.2411 8.85886 14.2062 8.96831C14.1667 9.09199 14.1667 9.22963 14.1667 9.50492V11.1806Z" stroke="white" stroke-width="1.25"/>
<path d="M1.66669 8.66666C1.66669 6.79982 1.66669 5.8664 2.03 5.15336C2.34958 4.52615 2.85951 4.01622 3.48672 3.69664C4.19976 3.33333 5.13318 3.33333 7.00002 3.33333H8.83335C10.7002 3.33333 11.6336 3.33333 12.3467 3.69664C12.9739 4.01622 13.4838 4.52615 13.8034 5.15336C14.1667 5.8664 14.1667 6.79982 14.1667 8.66666V11.3333C14.1667 13.2002 14.1667 14.1336 13.8034 14.8466C13.4838 15.4738 12.9739 15.9838 12.3467 16.3033C11.6336 16.6667 10.7002 16.6667 8.83335 16.6667H7.00002C5.13318 16.6667 4.19976 16.6667 3.48672 16.3033C2.85951 15.9838 2.34958 15.4738 2.03 14.8466C1.66669 14.1336 1.66669 13.2002 1.66669 11.3333V8.66666Z" stroke="white" stroke-width="1.25"/>
</svg>
